# xmcd
# 
# Track frame offsets:
#     150
#     17620
#     36939
#     54397
# 
# Disc length: 979
# 
# Revision: 2
# Processed by: cddbd v1.5.2PL0 Copyright (c) Steve Scherf et al.
# Submitted via: BonkEnc v1.0.6
# 
DISCID=2803d104
DTITLE=Various Artist - beginning
DYEAR=2005
DGENRE=Anime
TTITLE0=栗林みな実 - beginning
TTITLE1=栗林みな実 - ありがと…
TTITLE2=栗林みな実 - beginning (off vocal)
TTITLE3=栗林みな実 - ありがと… (off vocal)
EXTD=YEAR: 2005
EXTT0=
EXTT1=
EXTT2=
EXTT3=
PLAYORDER=
